<svg width="28" height="18" viewBox="0 0 28 18" fill="none" xmlns="http://www.w3.org/2000/svg">
<path fill-rule="evenodd" clip-rule="evenodd" d="M13.4643 14.5C13.4643 11.6611 10.7321 9.83928 6.73214 9.83928C2.73221 9.83928 0 11.6611 0 14.5C0 16.4989 1.32986 17.6071 3.10714 17.6071H10.3571C12.1344 17.6071 13.4643 16.4989 13.4643 14.5ZM2.07143 14.5C2.07143 13.0241 3.741 11.9107 6.73214 11.9107C9.72329 11.9107 11.3929 13.0241 11.3929 14.5C11.3929 15.2633 11.0656 15.5357 10.3571 15.5357H3.10714C2.39871 15.5357 2.07143 15.2633 2.07143 14.5ZM9.66158 1.21341C8.88465 0.436478 7.8309 0 6.73214 0C5.63339 0 4.57964 0.436478 3.8027 1.21341C3.02576 1.99035 2.58929 3.0441 2.58929 4.14286C2.58929 5.24161 3.02576 6.29536 3.8027 7.0723C4.57964 7.84924 5.63339 8.28571 6.73214 8.28571C7.8309 8.28571 8.88465 7.84924 9.66158 7.0723C10.4385 6.29536 10.875 5.24161 10.875 4.14286C10.875 3.0441 10.4385 1.99035 9.66158 1.21341ZM5.26742 2.67814C5.65589 2.28967 6.18277 2.07143 6.73214 2.07143C7.28152 2.07143 7.80839 2.28967 8.19686 2.67814C8.58533 3.0666 8.80357 3.59348 8.80357 4.14286C8.80357 4.69223 8.58533 5.21911 8.19686 5.60758C7.80839 5.99605 7.28152 6.21428 6.73214 6.21428C6.18277 6.21428 5.65589 5.99605 5.26742 5.60758C4.87895 5.21911 4.66071 4.69223 4.66071 4.14286C4.66071 3.59348 4.87895 3.0666 5.26742 2.67814Z" fill="black"/>
<path fill-rule="evenodd" clip-rule="evenodd" d="M27.9643 14.5C27.9643 11.6611 25.2321 9.83928 21.2321 9.83928C17.2322 9.83928 14.5 11.6611 14.5 14.5C14.5 16.4989 15.8299 17.6071 17.6071 17.6071H24.8571C26.6344 17.6071 27.9643 16.4989 27.9643 14.5ZM16.5714 14.5C16.5714 13.0241 18.241 11.9107 21.2321 11.9107C24.2233 11.9107 25.8929 13.0241 25.8929 14.5C25.8929 15.2633 25.5656 15.5357 24.8571 15.5357H17.6071C16.8987 15.5357 16.5714 15.2633 16.5714 14.5ZM24.1616 1.21341C23.3846 0.436478 22.3309 0 21.2321 0C20.1334 0 19.0796 0.436478 18.3027 1.21341C17.5258 1.99035 17.0893 3.0441 17.0893 4.14286C17.0893 5.24161 17.5258 6.29536 18.3027 7.0723C19.0796 7.84924 20.1334 8.28571 21.2321 8.28571C22.3309 8.28571 23.3846 7.84924 24.1616 7.0723C24.9385 6.29536 25.375 5.24161 25.375 4.14286C25.375 3.0441 24.9385 1.99035 24.1616 1.21341ZM19.7674 2.67814C20.1559 2.28967 20.6828 2.07143 21.2321 2.07143C21.7815 2.07143 22.3084 2.28967 22.6969 2.67814C23.0853 3.0666 23.3036 3.59348 23.3036 4.14286C23.3036 4.69223 23.0853 5.21911 22.6969 5.60758C22.3084 5.99605 21.7815 6.21428 21.2321 6.21428C20.6828 6.21428 20.1559 5.99605 19.7674 5.60758C19.379 5.21911 19.1607 4.69223 19.1607 4.14286C19.1607 3.59348 19.379 3.0666 19.7674 2.67814Z" fill="black"/>
</svg>
