<svg width="56" height="56" viewBox="0 0 56 56" fill="none" xmlns="http://www.w3.org/2000/svg">
<path d="M41.7555 6.8135C40.6155 5.6735 39.6715 4.7315 38.8395 4.0275C37.9875 3.3075 37.1255 2.7255 36.0995 2.3915C34.4928 1.8695 32.7621 1.8695 31.1555 2.3915C30.1195 2.7295 29.2495 3.3195 28.3895 4.0515C27.5615 4.7515 26.6215 5.6915 25.4835 6.8315L20.6575 11.6575L21 12L27 18L27.4185 18.4185C27.6042 18.2327 27.7514 18.0121 27.8519 17.7694C27.9523 17.5266 28.004 17.2665 28.0039 17.0038C28.0038 16.7411 27.9519 16.481 27.8513 16.2383C27.7507 15.9957 27.6033 15.7752 27.4175 15.5895L24.8995 13.0715L28.2535 9.7175C29.4655 8.5055 30.2895 7.6835 30.9795 7.0995C31.6495 6.5295 32.0595 6.3055 32.3915 6.1955C33.1948 5.9345 34.0601 5.9345 34.8635 6.1955C35.1935 6.3035 35.5975 6.5255 36.2575 7.0815C36.6935 7.4515 37.1875 7.9195 37.8035 8.5235C37.0831 10.0182 36.8453 11.6998 37.1229 13.3357C37.4006 14.9715 38.18 16.4805 39.3533 17.6537C40.5265 18.8269 42.0355 19.6064 43.6713 19.884C45.3071 20.1617 46.9888 19.9239 48.4835 19.2035C49.0875 19.8195 49.5555 20.3135 49.9235 20.7515C50.4835 21.4095 50.7035 21.8115 50.8115 22.1435C51.0725 22.9468 51.0725 23.8122 50.8115 24.6155C50.7015 24.9495 50.4775 25.3575 49.9075 26.0295C49.3235 26.7175 48.5015 27.5415 47.2875 28.7535L43.9355 32.1075L41.4175 29.5875C41.0422 29.2125 40.5333 29.0019 40.0028 29.0021C39.4722 29.0023 38.9635 29.2132 38.5885 29.5885L39 30L45.3495 36.3495L50.1755 31.5235C51.3155 30.3835 52.2555 29.4435 52.9555 28.6175C53.6875 27.7575 54.2775 26.8875 54.6155 25.8515C55.1375 24.2448 55.1375 22.5142 54.6155 20.9075C54.2815 19.8815 53.6995 19.0195 52.9795 18.1675C52.2845 17.3461 51.3575 16.4176 50.2371 15.2952L50.1935 15.2515C49.844 14.9023 49.3777 14.6947 48.8843 14.6689C48.391 14.643 47.9055 14.8007 47.5215 15.1115C46.753 15.7317 45.7824 16.0457 44.7963 15.9931C43.8102 15.9406 42.8785 15.5251 42.1803 14.8267C41.4822 14.1284 41.0671 13.1964 41.0149 12.2104C40.9626 11.2243 41.277 10.2537 41.8975 9.4855C42.208 9.10124 42.3653 8.61563 42.3391 8.12226C42.3129 7.62889 42.105 7.16269 41.7555 6.8135Z" fill="black"/>
<path d="M32.9175 21.0895C32.5403 20.7252 32.0351 20.5236 31.5107 20.5282C30.9863 20.5327 30.4847 20.743 30.1138 21.1139L35.8931 26.8931C36.2639 26.5223 36.4743 26.0207 36.4788 25.4963C36.4834 24.9719 36.2818 24.4667 35.9175 24.0895L32.9175 21.0895Z" fill="black"/>
</svg>
