<svg width="18" height="18" viewBox="0 0 18 18" fill="none" xmlns="http://www.w3.org/2000/svg">
<path d="M6.13241 9.54475C5.94381 9.36259 5.6912 9.2618 5.42901 9.26408C5.16681 9.26636 4.916 9.37153 4.73059 9.55693L7.62023 12.4466C7.80563 12.2612 7.9108 12.0103 7.91308 11.7482C7.91536 11.486 7.81457 11.2334 7.63241 11.0448L6.13241 9.54475Z" fill="black"/>
<path d="M10.5514 2.40675C9.98141 1.83675 9.50941 1.36575 9.09341 1.01375C8.66741 0.653752 8.23641 0.362752 7.72341 0.195752C6.92008 -0.0652506 6.05474 -0.0652506 5.25141 0.195752C4.73341 0.364752 4.29841 0.659752 3.86841 1.02575C3.45441 1.37575 2.98441 1.84575 2.41541 2.41575L0 4.83116L3.38291 8.20925C3.47575 8.11634 3.54939 8.00605 3.59961 7.88469C3.64983 7.76332 3.67566 7.63325 3.67561 7.5019C3.67556 7.37055 3.64965 7.2405 3.59934 7.11916C3.54903 6.99783 3.47532 6.8876 3.38241 6.79475L2.12341 5.53575L3.80041 3.85875C4.40641 3.25275 4.81841 2.84175 5.16341 2.54975C5.49841 2.26475 5.70341 2.15275 5.86941 2.09775C6.27107 1.96725 6.70374 1.96725 7.10541 2.09775C7.27041 2.15175 7.47241 2.26275 7.80241 2.54075C8.02041 2.72575 8.26741 2.95975 8.57541 3.26175C8.21522 4.00909 8.09631 4.84992 8.23515 5.66783C8.37398 6.48573 8.76369 7.24023 9.35031 7.82685C9.93693 8.41347 10.6914 8.80318 11.5093 8.94201C12.3272 9.08085 13.1681 8.96194 13.9154 8.60175C14.2174 8.90975 14.4514 9.15675 14.6354 9.37575C14.9154 9.70475 15.0254 9.90575 15.0794 10.0718C15.2099 10.4734 15.2099 10.9061 15.0794 11.3078C15.0244 11.4748 14.9124 11.6788 14.6274 12.0148C14.3354 12.3588 13.9244 12.7708 13.3174 13.3768L11.6414 15.0538L10.3824 13.7938C10.1948 13.6062 9.94033 13.501 9.67506 13.501C9.40979 13.5011 9.15542 13.6066 8.96791 13.7943L12.3469 17.1763L14.7614 14.7618C15.3314 14.1918 15.8014 13.7218 16.1514 13.3088C16.5174 12.8788 16.8124 12.4438 16.9814 11.9258C17.2424 11.1224 17.2424 10.2571 16.9814 9.45375C16.8144 8.94075 16.5234 8.50975 16.1634 8.08375C15.8159 7.67307 15.3524 7.20878 14.7922 6.6476L14.7704 6.62575C14.5957 6.45114 14.3625 6.34737 14.1158 6.33444C13.8692 6.32152 13.6264 6.40035 13.4344 6.55575C13.0502 6.86584 12.5649 7.02286 12.0718 6.99657C11.5788 6.97029 11.1129 6.76256 10.7638 6.41337C10.4148 6.06418 10.2072 5.59822 10.1811 5.10518C10.155 4.61213 10.3122 4.12685 10.6224 3.74275C10.7777 3.55062 10.8563 3.30781 10.8432 3.06113C10.8301 2.81445 10.7262 2.58135 10.5514 2.40675Z" fill="black"/>
</svg>
