<svg width="56" height="56" viewBox="0 0 56 56" fill="none" xmlns="http://www.w3.org/2000/svg">
<path d="M7.8315 24.4837C6.6915 25.6237 5.7515 26.5637 5.0515 27.3897C4.3195 28.2497 3.7295 29.1197 3.3915 30.1557C2.8695 31.7624 2.8695 33.4931 3.3915 35.0997C3.7255 36.1257 4.3075 36.9877 5.0275 37.8397C5.72253 38.6611 6.64954 39.5897 7.77003 40.7122L7.8135 40.7557C8.16295 41.1049 8.62928 41.3125 9.12264 41.3383C9.61601 41.3642 10.1015 41.2065 10.4855 40.8957C11.2539 40.2755 12.2246 39.9615 13.2107 40.0141C14.1967 40.0666 15.1285 40.4821 15.8266 41.1805C16.5248 41.8788 16.9399 42.8108 16.9921 43.7969C17.0443 44.783 16.73 45.7535 16.1095 46.5217C15.799 46.906 15.6416 47.3916 15.6679 47.885C15.6941 48.3783 15.902 48.8445 16.2515 49.1937C17.3915 50.3337 18.3355 51.2777 19.1675 51.9817C20.0195 52.6997 20.8815 53.2817 21.9075 53.6157C23.5142 54.1377 25.2448 54.1377 26.8515 53.6157C27.8875 53.2777 28.7575 52.6877 29.6175 51.9557C30.4455 51.2557 31.3855 50.3157 32.5235 49.1757L45.3495 36.3497L38.5885 29.5887C38.2135 29.964 38.0029 30.4729 38.0031 31.0034C38.0033 31.534 38.2142 32.0427 38.5895 32.4177L41.1075 34.9357L29.7535 46.2897C28.5415 47.5017 27.7175 48.3237 27.0295 48.9097C26.3575 49.4777 25.9495 49.7017 25.6155 49.8097C24.8123 50.0717 23.9467 50.0717 23.1435 49.8097C22.8135 49.7037 22.4095 49.4817 21.7515 48.9257C21.2188 48.464 20.7031 47.9831 20.2055 47.4837C20.9259 45.989 21.1637 44.3074 20.886 42.6716C20.6084 41.0358 19.8289 39.5268 18.6557 38.3535C17.4825 37.1803 15.9735 36.4009 14.3377 36.1232C12.7018 35.8455 11.0202 36.0833 9.5255 36.8037C9.02546 36.3062 8.54381 35.7905 8.0815 35.2577C7.5255 34.5977 7.3035 34.1937 7.1955 33.8637C6.9345 33.0604 6.9345 32.195 7.1955 31.3917C7.3055 31.0577 7.5295 30.6497 8.0995 29.9797C8.6835 29.2897 9.5055 28.4657 10.7195 27.2537L22.0715 15.8997L24.5895 18.4197C24.7753 18.6054 24.9959 18.7527 25.2386 18.8531C25.4814 18.9536 25.7415 19.0052 26.0042 19.0051C26.2669 19.005 26.527 18.9532 26.7697 18.8526C27.0123 18.752 27.2328 18.6045 27.4185 18.4187L20.6575 11.6577L7.8315 24.4837Z" fill="black"/>
<path d="M35.8931 26.8934L30.1139 21.1141C29.7431 21.4849 29.5327 21.9865 29.5282 22.5109C29.5236 23.0353 29.7252 23.5405 30.0895 23.9177L33.0895 26.9177C33.4667 27.282 33.9719 27.4836 34.4963 27.4791C35.0207 27.4745 35.5223 27.2642 35.8931 26.8934Z" fill="black"/>
</svg>
