<svg width="22" height="22" viewBox="0 0 22 22" fill="none" xmlns="http://www.w3.org/2000/svg">
<path d="M2.41575 6.54644C1.84575 7.11644 1.37575 7.58644 1.02575 7.99944C0.659752 8.42944 0.364752 8.86444 0.195752 9.38244C-0.0652506 10.1858 -0.0652506 11.0511 0.195752 11.8544C0.362752 12.3674 0.653752 12.7984 1.01375 13.2244C1.36127 13.6351 1.82477 14.0994 2.38501 14.6607L2.40675 14.6824C2.58147 14.8571 2.81464 14.9608 3.06132 14.9737C3.308 14.9867 3.55074 14.9078 3.74275 14.7524C4.12696 14.4423 4.6123 14.2853 5.10533 14.3116C5.59837 14.3379 6.06426 14.5456 6.41332 14.8948C6.76238 15.244 6.96995 15.71 6.99606 16.203C7.02217 16.6961 6.86498 17.1813 6.55475 17.5654C6.39948 17.7576 6.32082 18.0004 6.33393 18.2471C6.34704 18.4937 6.45099 18.7268 6.62575 18.9014C7.19575 19.4714 7.66775 19.9434 8.08375 20.2954C8.50975 20.6544 8.94075 20.9454 9.45375 21.1124C10.2571 21.3734 11.1224 21.3734 11.9258 21.1124C12.4438 20.9434 12.8788 20.6484 13.3088 20.2824C13.7228 19.9324 14.1928 19.4624 14.7618 18.8924L21.1652 12.489L17.7943 9.09894C17.6067 9.28658 17.5015 9.54102 17.5015 9.80629C17.5016 10.0716 17.6071 10.3259 17.7948 10.5134L19.0538 11.7724L13.3768 17.4494C12.7708 18.0554 12.3588 18.4664 12.0148 18.7594C11.6788 19.0434 11.4748 19.1554 11.3078 19.2094C10.9062 19.3404 10.4733 19.3404 10.0718 19.2094C9.90675 19.1564 9.70475 19.0454 9.37575 18.7674C9.10938 18.5366 8.85155 18.2961 8.60275 18.0464C8.96294 17.2991 9.08185 16.4583 8.94301 15.6404C8.80418 14.8225 8.41447 14.068 7.82785 13.4813C7.24123 12.8947 6.48673 12.505 5.66883 12.3662C4.85092 12.2273 4.01009 12.3463 3.26275 12.7064C3.01273 12.4577 2.7719 12.1998 2.54075 11.9334C2.26275 11.6034 2.15175 11.4014 2.09775 11.2364C1.96725 10.8348 1.96725 10.4021 2.09775 10.0004C2.15275 9.83344 2.26475 9.62944 2.54975 9.29444C2.84175 8.94944 3.25275 8.53744 3.85975 7.93144L9.53575 2.25444L10.7948 3.51444C10.8877 3.60728 10.998 3.68092 11.1193 3.73114C11.2407 3.78136 11.3708 3.80719 11.5021 3.80714C11.6335 3.8071 11.7635 3.78118 11.8848 3.73087C12.0043 3.73087 12.1164 3.60685 12.2093 3.51394L8.80786 0L2.41575 6.54644Z" fill="black"/>
<path d="M16.4466 7.75126L13.5569 4.86162C13.3715 5.04703 13.2664 5.29784 13.2641 5.56004C13.2618 5.82224 13.3626 6.07484 13.5448 6.26344L15.0448 7.76344C15.2334 7.9456 15.486 8.04639 15.7482 8.04411C16.0103 8.04183 16.2612 7.93667 16.4466 7.75126Z" fill="black"/>
</svg>
